<?xml version="1.0" encoding="UTF-8" standalone="no"?>
<!-- Created with vcg library -->
<svg width="23.000000cm" height="111.000000cm" 
	xmlns="http://www.w3.org/2000/svg" 
	xmlns:xlink="http://www.w3.org/1999/xlink" 
	xmlns:dc="http://purl.org/dc/elements/1.1/" 
	xmlns:cc="http://web.resource.org/cc/" 
	xmlns:rdf="http://www.w3.org/1999/02/22-rdf-syntax-ns#" 
	xmlns:svg="http://www.w3.org/2000/svg" 
 
id="svg2"> 
	<defs id="defs4"/> 
	<metadata id="metadata7"> 
	<rdf:RDF> 
	<cc:Work rdf:about=""> 
	<dc:format>image/svg+xml</dc:format> 
	<dc:type rdf:resource="http://purl.org/dc/dcmitype/StillImage" /> 
	</cc:Work> 
	</rdf:RDF> 
</metadata> 
 
  <rect width= " 10.000000cm " height= " 10.000000cm " x="1.000000cm " y="1.000000cm "         style= " stroke-width:1pt; fill-opacity:0.0; stroke:rgb(0,0,0)" /> 
<g stroke="black" stroke-linecap="round" stroke-width = "0.010000pt" > 
  <svg id = "SliceNum0" viewBox="-1000 -1000 2000 2000" width="10.000000cm" height="10.000000cm" x="1.000000cm" y="1.000000cm" >
        <line x1="547.660767" y1="457.794830" x2="558.284973" y2="443.163635" />
        <line x1="558.284973" y1="443.163635" x2="666.749268" y2="258.835388" />
        <line x1="482.311401" y1="517.407654" x2="547.660767" y2="457.794830" />
        <line x1="673.951965" y1="-227.971390" x2="683.462036" y2="-188.774719" />
        <line x1="709.650696" y1="-1.224947" x2="706.358398" y2="48.660267" />
        <line x1="671.362000" y1="248.961777" x2="706.358398" y2="48.660267" />
        <line x1="683.462036" y1="-188.774719" x2="709.650696" y2="-1.224947" />
        <line x1="632.583862" y1="-315.818207" x2="673.951965" y2="-227.971390" />
        <line x1="117.971977" y1="-694.518982" x2="-109.485092" y2="-704.031006" />
        <line x1="212.545410" y1="-671.712097" x2="367.849091" y2="-600.555237" />
        <line x1="438.457581" y1="-554.197266" x2="367.849091" y2="-600.555237" />
        <line x1="212.545410" y1="-671.712097" x2="117.971977" y2="-694.518982" />
        <line x1="-128.951889" y1="-702.325867" x2="-151.516251" y2="-695.758240" />
        <line x1="-109.485092" y1="-704.031006" x2="-128.951889" y2="-702.325867" />
        <line x1="-351.141632" y1="-610.589539" x2="-151.516251" y2="-695.758240" />
        <line x1="670.683167" y1="251.804138" x2="671.362000" y2="248.961777" />
        <line x1="577.140503" y1="-410.986206" x2="528.155518" y2="-469.470673" />
        <line x1="528.155518" y1="-469.470673" x2="438.457581" y2="-554.197266" />
        <line x1="577.140503" y1="-410.986206" x2="632.583862" y2="-315.818207" />
        <line x1="-521.003296" y1="-472.982330" x2="-606.722717" y2="-361.376068" />
        <line x1="-521.003296" y1="-472.982330" x2="-448.024628" y2="-546.086365" />
        <line x1="-662.454651" y1="-238.151489" x2="-606.722717" y2="-361.376068" />
        <line x1="-691.988647" y1="-153.448242" x2="-662.454651" y2="-238.151489" />
        <line x1="-448.024628" y1="-546.086365" x2="-351.141632" y2="-610.589539" />
        <line x1="-447.530762" y1="543.725525" x2="-252.053497" y2="667.140991" />
        <line x1="-235.927551" y1="673.485779" x2="-252.053497" y2="667.140991" />
        <line x1="-447.530762" y1="543.725525" x2="-559.224121" y2="428.917786" />
        <line x1="7.033895" y1="711.559998" x2="-235.927551" y2="673.485779" />
        <line x1="-559.224121" y1="428.917786" x2="-607.538269" y2="367.985992" />
        <line x1="-683.504333" y1="169.336136" x2="-702.199402" y2="77.101074" />
        <line x1="-702.199402" y1="77.101074" x2="-700.548950" y2="-78.138268" />
        <line x1="-628.300598" y1="329.953644" x2="-683.504333" y2="169.336136" />
        <line x1="-700.548950" y1="-78.138268" x2="-691.988647" y2="-153.448242" />
        <line x1="-607.538269" y1="367.985992" x2="-628.300598" y2="329.953644" />
        <line x1="351.261780" y1="617.032104" x2="386.543518" y2="596.246399" />
        <line x1="666.749268" y1="258.835388" x2="670.683167" y2="251.804138" />
        <line x1="386.543518" y1="596.246399" x2="482.311401" y2="517.407654" />
        <line x1="41.798378" y1="709.797241" x2="203.914581" y2="673.924561" />
        <line x1="41.798378" y1="709.797241" x2="7.033895" y2="711.559998" />
        <line x1="203.914581" y1="673.924561" x2="351.261780" y2="617.032104" />
  </svg>
</g>
</svg>